{"title":"Knockout-AC3-XviD-DVDRip 2011 TBS","uid":6356477,"size":1568817733,"categoryP":"video","categoryS":"movies","magnet":"?xt=urn:btih:04c5c66e944a8c275a2c957ec22e2e755ac0fa29&amp;dn=Knockout-AC3-XviD-DVDRip+2011+TBS&amp;tr=udp%3A%2F%2Ftracker.openbittorrent.com%3A80&amp;tr=udp%3A%2F%2Fopen.demonii.com%3A1337&amp;tr=udp%3A%2F%2Ftracker.coppersurfer.tk%3A6969&amp;tr=udp%3A%2F%2Fexodus.desync.com%3A6969","seeders":0,"leechers":1,"uploader":"FatFreddy30","files":-1,"time":1304163285,"description":"Dan Barnes (Steve Austin) is a former pro boxer who retired after growing weary of his violent existence. Now a school janitor, Dan tries to help a new student, Matthew Miller (Daniel Magder), who is being targeted by bullies. While Matthew learns how to box and stand up to his tormentors, one of whom is the school boxing champ (Jaren Brandt Bartlett), Dan's new found role as a teacher helps him come to terms with his tumultuous past...\n &lt;a href=&quot;\nhttp://www.imdb.com/title/tt1691453/&quot; rel=&quot;nofollow&quot; target=&quot;_NEW&quot;&gt;\nhttp://www.imdb.com/title/tt1691453/&lt;/a&gt;\n\nSubs: Dutch, English.\n\n\nDan Barnes (Steve Austin) is een voormalig kampioen zwaargewicht boksen, die besluit zijn gewelddadige leven de rug toe te keren. Het leven van Dan wordt plotseling op zijn kop gezet wanneer de nieuwe bokskampioen iedere tegenstander op brute wijze verslaat. Om een nieuwe waardige titelhouder te krijgen besluit Dan een nieuwkomer voor te bereiden op de grootste uitdaging van zijn leven...\n &lt;a href=&quot;\nhttp://www.moviemeter.nl/film/74141&quot; rel=&quot;nofollow&quot; target=&quot;_NEW&quot;&gt;\nhttp://www.moviemeter.nl/film/74141&lt;/a&gt;\n\nSubs: Engels, Nederlands.\n\n\nGeneral\nComplete name                    : Knockout-AC3-XviD-DVDRip 2011.avi\nFormat                           : AVI\nFormat/Info                      : Audio Video Interleave\nFile size                        : 1.46 GiB\nDuration                         : 1h 35mn\nOverall bit rate                 : 2 197 Kbps\nWriting application              : VirtualDubMod 1.5.4.1 (build 2178/release)\nWriting library                  : VirtualDubMod build 2178/release\nSource                           : Knockout (2011) R1 NTSC DVDR-IGUANA\n\nVideo\nID                               : 0\nFormat                           : MPEG-4 Visual\nFormat profile                   : Simple@L3\nFormat settings, BVOP            : No\nFormat settings, QPel            : No\nFormat settings, GMC             : No warppoints\nFormat settings, Matrix          : Default (H.263)\nCodec ID                         : XVID\nCodec ID/Hint                    : XviD\nDuration                         : 1h 35mn\nBit rate                         : 1 804 Kbps\nWidth                            : 720 pixels\nHeight                           : 400 pixels\nDisplay aspect ratio             : 16:9\nFrame rate                       : 23.976 fps\nResolution                       : 8 bits\nColorimetry                      : 4:2:0\nScan type                        : Progressive\nBits/(Pixel*Frame)               : 0.261\nStream size                      : 1.20 GiB (82%)\nWriting library                  : XviD 1.1.2 (UTC 2006-11-01)\n\nAudio\nID                               : 1\nFormat                           : AC-3\nFormat/Info                      : Audio Coding 3\nCodec ID                         : 2000\nDuration                         : 1h 35mn\nBit rate mode                    : Constant\nBit rate                         : 384 Kbps\nChannel(s)                       : 6 channels\nChannel positions                : Front: L C R, Surround: L R, LFE\nSampling rate                    : 48.0 KHz\nStream size                      : 261 MiB (17%)\nAlignment                        : Split accross interleaves\nInterleave, duration             : 42 ms (1.00 video frame)\nInterleave, preload duration     : 500 ms\n\nEnjoy...\n\nTBS.","torrent":{"xt":"urn:btih:04c5c66e944a8c275a2c957ec22e2e755ac0fa29","amp;dn":"Knockout-AC3-XviD-DVDRip+2011+TBS","amp;tr":["udp%3A%2F%2Ftracker.openbittorrent.com%3A80","udp%3A%2F%2Fopen.demonii.com%3A1337","udp%3A%2F%2Ftracker.coppersurfer.tk%3A6969","udp%3A%2F%2Fexodus.desync.com%3A6969"],"infoHash":"04c5c66e944a8c275a2c957ec22e2e755ac0fa29","infoHashBuffer":{"type":"Buffer","data":[4,197,198,110,148,74,140,39,90,44,149,126,194,46,46,117,90,192,250,41]},"announce":[],"urlList":[]}}